<svg width="300" height="280" viewBox="0 0 300 280" fill="none" xmlns="http://www.w3.org/2000/svg">
<path fill-rule="evenodd" clip-rule="evenodd" d="M46.367 164.623L34.3262 167.531L33.4662 114.978L61.8479 108.954L74.1036 113.732L45.7219 119.963L46.367 164.623Z" fill="#E3670C"/>
<path fill-rule="evenodd" clip-rule="evenodd" d="M34.7471 166.952L46.6181 164.017L46.8301 172.193L59.761 177.853L34.9591 183.933L3.58569 169.887L28.1756 164.017L34.7471 166.952Z" fill="url(#paint0_linear)"/>
<path fill-rule="evenodd" clip-rule="evenodd" d="M34.6613 167.531L27.9246 164.616L2.28175 153.785L1.19519 101.925L33.7921 114.838L34.6613 167.531Z" fill="#FF9C54"/>
<path fill-rule="evenodd" clip-rule="evenodd" d="M62.1514 108.732L33.6187 114.812L1.19519 101.814L29.5117 95.9436L33.4025 97.4111L45.7235 94.8954V102.233L62.1514 108.732Z" fill="#FF9344"/>
<path fill-rule="evenodd" clip-rule="evenodd" d="M33.4661 97.2385L29.6047 95.7592L1.07263 84.3478L0 30.4602L32.608 42.5057L33.4661 97.2385Z" fill="url(#paint1_linear)"/>
<path fill-rule="evenodd" clip-rule="evenodd" d="M35.8566 236.653L4.64724 221.601L3.58569 169.874L35.0074 184.078L35.8566 236.653Z" fill="url(#paint2_linear)"/>
<path fill-rule="evenodd" clip-rule="evenodd" d="M47.4379 233.481L35.5131 236.653L34.6614 184.208L59.5755 178.075L71.7132 183.574L46.799 189.706L47.4379 233.481Z" fill="url(#paint3_linear)"/>
<path fill-rule="evenodd" clip-rule="evenodd" d="M43.8935 22.2594L64.5618 29.9477L76.494 34.341L32.3874 43.3473L0 30.8263L43.8935 22.2594Z" fill="url(#paint4_linear)"/>
<path fill-rule="evenodd" clip-rule="evenodd" d="M45.3029 94.7079L33.1255 97.2385L32.271 42.6209L76.4941 33.9749V40.9339L44.662 47.2602L45.3029 94.7079Z" fill="url(#paint5_linear)"/>
<path fill-rule="evenodd" clip-rule="evenodd" d="M76.7909 41.5309V34.4371L64.5419 30.1378V18.7448L98.008 30.5677V42.1757L89.6962 39.1663L76.7909 41.5309Z" fill="url(#paint6_linear)"/>
<path fill-rule="evenodd" clip-rule="evenodd" d="M250.996 25.7741L250.782 32.9852L223.833 38.4995L223.619 50.3766L210.359 45.9227L210.573 34.0456L250.996 25.7741Z" fill="url(#paint7_linear)"/>
<path fill-rule="evenodd" clip-rule="evenodd" d="M210.359 33.7657L210.145 45.4812L201.586 42.5523L186.609 45.6904V38.3682L175.697 34.8117L175.911 22.2594L210.359 33.7657Z" fill="url(#paint8_linear)"/>
<path fill-rule="evenodd" clip-rule="evenodd" d="M250.996 25.5321L210.335 33.9749L175.697 22.0684L203.235 16.4399L215.928 14.0586L250.996 25.5321Z" fill="url(#paint9_linear)"/>
<path fill-rule="evenodd" clip-rule="evenodd" d="M203.187 17.0625L175.519 22.5298L175.303 35.1464L162.55 30.7306L162.766 18.3242L203.187 10.5439V17.0625Z" fill="url(#paint10_linear)"/>
<path fill-rule="evenodd" clip-rule="evenodd" d="M296.128 163.946L270.518 170.952L256.972 174.561L258.03 121.063L297.609 111.297L296.128 163.946Z" fill="url(#paint11_linear)"/>
<path fill-rule="evenodd" clip-rule="evenodd" d="M258.167 121.771L257.1 174.561L247.069 170.58L235.757 166.181L236.611 127.008L222.311 121.771V112.973L229.567 111.297L258.167 121.771Z" fill="#FF9C54"/>
<path fill-rule="evenodd" clip-rule="evenodd" d="M246.679 169.874L256.842 173.881L270.682 170.296L296.414 180.208L256.41 190.962L230.677 180.629L235.002 179.575L235.218 173.038L246.679 169.874Z" fill="url(#paint12_linear)"/>
<path fill-rule="evenodd" clip-rule="evenodd" d="M297.609 112.197L257.921 121.841L229.482 111.359L236.698 109.472V105.279L248.795 102.554L251.342 101.925L258.346 104.44L268.958 101.925L297.609 112.197Z" fill="#FF9344"/>
<path fill-rule="evenodd" clip-rule="evenodd" d="M248.399 102.634L236.653 105.439L236.859 97.4543L238.302 97.2385L248.606 101.123L248.399 102.634Z" fill="#E3670C"/>
<path fill-rule="evenodd" clip-rule="evenodd" d="M239.044 96.9456L236.653 97.2385V96.067L239.044 96.9456Z" fill="url(#paint13_linear)"/>
<path fill-rule="evenodd" clip-rule="evenodd" d="M222.311 112.469V121.841L209.163 116.485V115.593L222.311 112.469Z" fill="url(#paint14_linear)"/>
<path fill-rule="evenodd" clip-rule="evenodd" d="M249.027 100.876L238.481 97.06L237.005 96.424L237.849 54.4491L223.506 49.3613L223.717 37.4896L259.363 49.5732L258.308 104.268L251.348 101.724L249.027 100.876Z" fill="url(#paint15_linear)"/>
<path fill-rule="evenodd" clip-rule="evenodd" d="M255.892 242.51L234.508 233.46L235.372 196.415L221.115 190.732V183.155L231.268 180.418L256.972 190.732L255.892 242.51Z" fill="url(#paint16_linear)"/>
<path fill-rule="evenodd" clip-rule="evenodd" d="M294.917 231.221L255.777 242.51L256.846 191.081L296.414 180.418L294.917 231.221Z" fill="url(#paint17_linear)"/>
<path fill-rule="evenodd" clip-rule="evenodd" d="M221.116 183.933V190.962L210.359 186.667L221.116 183.933Z" fill="url(#paint18_linear)"/>
<path fill-rule="evenodd" clip-rule="evenodd" d="M247.41 170.46L235.458 173.389V166.36L247.41 170.46Z" fill="url(#paint19_linear)"/>
<path fill-rule="evenodd" clip-rule="evenodd" d="M298.49 95.0998L268.949 101.767L258.167 104.268L259.245 50.5102L300 42.1757L298.49 95.0998Z" fill="url(#paint20_linear)"/>
<path fill-rule="evenodd" clip-rule="evenodd" d="M223.506 38.5512L250.428 33.1572L263.89 30.4602L300 42.0781L259.616 50.3766L223.506 38.5512Z" fill="url(#paint21_linear)"/>
<path fill-rule="evenodd" clip-rule="evenodd" d="M46.2849 172.932L46.0682 164.728L45.4183 119.498L79.6464 133.172L80.0797 187.448L71.8476 184.082L59.4995 178.612L46.2849 172.932Z" fill="#FF9C54"/>
<path fill-rule="evenodd" clip-rule="evenodd" d="M80.5008 187.448L80.0797 133.062L107.873 126.527L120.717 131.797L92.7131 138.332L92.9237 184.286L80.5008 187.448Z" fill="#E3670C"/>
<path fill-rule="evenodd" clip-rule="evenodd" d="M79.8651 187.341L92.5222 184.146V193.092L105.179 198.631L79.8651 205.021L46.6135 190.11L71.7131 183.933L79.8651 187.341Z" fill="url(#paint22_linear)"/>
<path fill-rule="evenodd" clip-rule="evenodd" d="M107.57 126.886L79.2801 133.556L45.4183 119.57L73.7079 113.114L79.0658 115.266L91.9247 112.469L92.139 120.646L107.57 126.886Z" fill="#FF9344"/>
<path fill-rule="evenodd" clip-rule="evenodd" d="M78.8845 114.812L73.6879 112.751L61.8396 108.01L46.0419 101.621V94.4073L45.4183 48.0335L78.4687 60.3998L78.8845 114.812Z" fill="url(#paint23_linear)"/>
<path fill-rule="evenodd" clip-rule="evenodd" d="M47.253 242.173V233.338L46.6135 189.791L79.6533 204.517L80.0797 257.741L47.253 242.173Z" fill="url(#paint24_linear)"/>
<path fill-rule="evenodd" clip-rule="evenodd" d="M93.1868 254.151L80.5094 257.741L80.0797 204.325L105.434 197.992L118.327 203.481L92.972 210.026L93.1868 254.151Z" fill="url(#paint25_linear)"/>
<path fill-rule="evenodd" clip-rule="evenodd" d="M76.874 40.9578L89.3296 38.6611L97.3519 41.5842L109.596 45.9688L123.108 50.771L78.9852 59.749L45.4183 47.2215L76.874 40.9578Z" fill="url(#paint26_linear)"/>
<path fill-rule="evenodd" clip-rule="evenodd" d="M123.739 51.2552L109.96 46.4435V35.1465L144.622 47.0711V58.5774L136.871 55.8577L123.739 58.5774V51.2552Z" fill="url(#paint27_linear)"/>
<path fill-rule="evenodd" clip-rule="evenodd" d="M105.071 198.614L92.2492 193.126V184.26L92.0319 138.243L127.5 152L127.888 208.536L118.109 204.103L105.071 198.614Z" fill="#FF9C54"/>
<path fill-rule="evenodd" clip-rule="evenodd" d="M93.4398 253.958L93.2272 209.707L127.889 225.375V280L93.4398 263.485V253.958Z" fill="url(#paint28_linear)"/>
<path fill-rule="evenodd" clip-rule="evenodd" d="M107.92 126.707L92.4613 120.585L92.2466 112.564L92.0319 64.4351L127.888 77.7338V134.728L121.018 131.984L107.92 126.707Z" fill="url(#paint29_linear)"/>
<path fill-rule="evenodd" clip-rule="evenodd" d="M136.426 56.2343L144.073 58.9387L158.942 64.3476L172.112 69.1323L127.505 78.4937L92.0319 65.3877L123.469 58.9387L136.426 56.2343Z" fill="url(#paint30_linear)"/>
<path fill-rule="evenodd" clip-rule="evenodd" d="M91.7916 65.1488L92.0032 112.133L79.3076 114.812L78.8844 60.4092L123.107 51.5481V58.7606L91.7916 65.1488Z" fill="url(#paint31_linear)"/>
<path fill-rule="evenodd" clip-rule="evenodd" d="M172.118 69.1647L158.964 64.3411V51.5481L194.821 64.3411L194.184 119.498L187.182 116.981L185.485 116.352L174.24 111.948L171.906 111.109L172.118 69.1647Z" fill="url(#paint32_linear)"/>
<path fill-rule="evenodd" clip-rule="evenodd" d="M209.384 116.409L222.379 121.522L236.653 126.847L194.684 137.071L166.135 125.995L172.314 124.504V120.03L186.162 116.835L187.866 116.409L194.897 118.965L207.892 115.983L209.384 116.409Z" fill="#FF9344"/>
<path fill-rule="evenodd" clip-rule="evenodd" d="M187.649 116.686L186.454 117.155V115.983L187.649 116.686Z" fill="#FF7272"/>
<path fill-rule="evenodd" clip-rule="evenodd" d="M235.458 196.82L234.589 234.002L234.371 249.213L192.43 261.255L193.082 208.228L235.458 196.82Z" fill="url(#paint33_linear)"/>
<path fill-rule="evenodd" clip-rule="evenodd" d="M221.345 191.031L235.458 196.866L193.759 208.536L168.526 197.514L171.733 196.649V189.734L184.136 186.276L193.973 190.598L210.011 186.276L221.345 191.031Z" fill="url(#paint34_linear)"/>
<path fill-rule="evenodd" clip-rule="evenodd" d="M209.761 186.751L193.626 190.962L194.271 136.635L236.653 126.527L235.793 165.904V173.485L235.578 180.013L231.275 181.065L221.163 183.803L209.761 186.751Z" fill="url(#paint35_linear)"/>
<path fill-rule="evenodd" clip-rule="evenodd" d="M236.784 109.601L229.541 111.496L222.299 113.181L209.305 116.129L207.814 116.55L194.821 119.498L195.46 64.1174L237.849 55.0627L236.997 96.7561V97.5984L236.784 105.39V109.601Z" fill="url(#paint36_linear)"/>
<path fill-rule="evenodd" clip-rule="evenodd" d="M201.407 42.1757L209.982 45.0701L223.272 49.4118L237.848 54.3736L195.191 63.2636L158.964 50.6522L186.402 45.2769L201.407 42.1757Z" fill="url(#paint37_linear)"/>
<path fill-rule="evenodd" clip-rule="evenodd" d="M175.587 34.8291L186.454 38.356L144.265 46.8619L109.96 35.0366L139.578 29.2277L152.149 26.9456L163.016 30.4724L175.587 34.8291Z" fill="url(#paint38_linear)"/>
<path fill-rule="evenodd" clip-rule="evenodd" d="M152.518 26.9038L139.779 29.205V22.5105L130.279 19.3724V7.0293L163.745 18.1172L163.529 30.4603L152.518 26.9038Z" fill="url(#paint39_linear)"/>
<path fill-rule="evenodd" clip-rule="evenodd" d="M130.375 19.4579L139.841 22.5141L97.4582 30.4603L64.5419 19.2541L106.709 11.7155L130.375 19.4579Z" fill="url(#paint40_linear)"/>
<path fill-rule="evenodd" clip-rule="evenodd" d="M110.324 45.6904L98.0081 41.3741V30.2753L139.841 22.2594V28.8365L110.324 34.5915V45.6904Z" fill="url(#paint41_linear)"/>
<path fill-rule="evenodd" clip-rule="evenodd" d="M171.69 124.523L165.583 125.98L158.634 127.438L144.104 130.979L143.472 131.187L127.888 134.728V78.4937L172.112 69.1213L171.901 110.776V112.234L171.69 120.149V124.523Z" fill="url(#paint42_linear)"/>
<path fill-rule="evenodd" clip-rule="evenodd" d="M127.456 134.66L143.343 131.213L143.987 131.416L158.801 136.891L172.112 141.96L127.456 152.301L92.0319 138.31L120.586 132.024L127.456 134.66Z" fill="#FF9344"/>
<path fill-rule="evenodd" clip-rule="evenodd" d="M172.276 141.863L158.964 136.572V126.837L166.049 125.356L194.821 136.361L194.176 190.962L184.3 186.73L171.847 181.65L172.276 141.863Z" fill="#FF9C54"/>
<path fill-rule="evenodd" clip-rule="evenodd" d="M172.111 181.59L184.064 186.51L172.111 189.791V181.59Z" fill="url(#paint43_linear)"/>
<path fill-rule="evenodd" clip-rule="evenodd" d="M172.112 141.757L171.686 181.612V190.092V196.876L168.497 197.724L158.504 200.268L146.386 203.448L127.888 208.536V152.569L172.112 141.757Z" fill="url(#paint44_linear)"/>
<path fill-rule="evenodd" clip-rule="evenodd" d="M127.638 207.885L146.005 202.678L158.039 208.319L170.916 213.959L127.638 226.109L93.2272 210.054L118.138 203.329L127.638 207.885Z" fill="url(#paint45_linear)"/>
<path fill-rule="evenodd" clip-rule="evenodd" d="M171.025 214.541L157.769 209.094V200.505L167.983 197.992L193.625 208.675L192.974 261.255L170.808 251.619L171.025 214.541Z" fill="url(#paint46_linear)"/>
<path fill-rule="evenodd" clip-rule="evenodd" d="M170.916 214.393L170.706 251.375L170.497 267.464L127.888 280V226.094L170.916 214.393Z" fill="url(#paint47_linear)"/>
<path fill-rule="evenodd" clip-rule="evenodd" d="M158.964 137.071L143.426 131.57V131.162L158.964 127.699V137.071Z" fill="#D65E07"/>
<path fill-rule="evenodd" clip-rule="evenodd" d="M159.411 63.2636L144.621 58.0205V46.9292L186.454 38.6611V45.7192L159.411 50.9624V63.2636Z" fill="url(#paint48_linear)"/>
<path fill-rule="evenodd" clip-rule="evenodd" d="M174.759 111.297L186.454 115.497V116.498L172.111 119.498L172.332 111.897L174.759 111.297Z" fill="#D65E07"/>
<path fill-rule="evenodd" clip-rule="evenodd" d="M145.817 203.335L157.769 200.335V208.536L145.817 203.335Z" fill="url(#paint49_linear)"/>
<path fill-rule="evenodd" clip-rule="evenodd" d="M172.111 112.469V110.125L174.502 111.464L172.111 112.469Z" fill="#AB5210"/>
<path fill-rule="evenodd" clip-rule="evenodd" d="M203.187 10.1845L163.322 17.5732L130.279 6.98935L170.144 0L203.187 10.1845Z" fill="url(#paint50_linear)"/>
<defs>
<linearGradient id="paint0_linear" x1="12.5663" y1="189.159" x2="50.31" y2="158.254" gradientUnits="userSpaceOnUse">
<stop stop-color="#58595B"/>
<stop offset="1" stop-color="#858D91"/>
</linearGradient>
<linearGradient id="paint1_linear" x1="22.9295" y1="91.5837" x2="11.2531" y2="35.8185" gradientUnits="userSpaceOnUse">
<stop stop-color="#000007"/>
<stop offset="1" stop-color="#676A74"/>
</linearGradient>
<linearGradient id="paint2_linear" x1="25.8944" y1="231.515" x2="13.8658" y2="174.842" gradientUnits="userSpaceOnUse">
<stop stop-color="#000007"/>
<stop offset="1" stop-color="#676A74"/>
</linearGradient>
<linearGradient id="paint3_linear" x1="-69.7199" y1="274.911" x2="168.259" y2="130.924" gradientUnits="userSpaceOnUse">
<stop/>
<stop offset="1" stop-color="#6D6E71"/>
</linearGradient>
<linearGradient id="paint4_linear" x1="7.82647" y1="57.9987" x2="70.1572" y2="9.0385" gradientUnits="userSpaceOnUse">
<stop stop-color="#858F98"/>
<stop offset="1" stop-color="#848E95"/>
</linearGradient>
<linearGradient id="paint5_linear" x1="-105.999" y1="154.446" x2="207.557" y2="-36.4223" gradientUnits="userSpaceOnUse">
<stop/>
<stop offset="1" stop-color="#6D6E71"/>
</linearGradient>
<linearGradient id="paint6_linear" x1="84.9282" y1="47.2966" x2="77.856" y2="13.4413" gradientUnits="userSpaceOnUse">
<stop stop-color="#000007"/>
<stop offset="1" stop-color="#676A74"/>
</linearGradient>
<linearGradient id="paint7_linear" x1="209.044" y1="47.0243" x2="250.596" y2="21.8465" gradientUnits="userSpaceOnUse">
<stop/>
<stop offset="1" stop-color="#6D6E71"/>
</linearGradient>
<linearGradient id="paint8_linear" x1="196.612" y1="50.6186" x2="189.628" y2="17.0152" gradientUnits="userSpaceOnUse">
<stop stop-color="#000007"/>
<stop offset="1" stop-color="#676A74"/>
</linearGradient>
<linearGradient id="paint9_linear" x1="180.643" y1="50.3704" x2="246.189" y2="-2.37841" gradientUnits="userSpaceOnUse">
<stop stop-color="#858F98"/>
<stop offset="1" stop-color="#848E95"/>
</linearGradient>
<linearGradient id="paint10_linear" x1="160.357" y1="31.7206" x2="202.892" y2="5.44819" gradientUnits="userSpaceOnUse">
<stop/>
<stop offset="1" stop-color="#6D6E71"/>
</linearGradient>
<linearGradient id="paint11_linear" x1="257.864" y1="158.166" x2="296.254" y2="127.173" gradientUnits="userSpaceOnUse">
<stop stop-color="#E3670C"/>
<stop offset="1" stop-color="#FF9344"/>
</linearGradient>
<linearGradient id="paint12_linear" x1="238.967" y1="197.745" x2="285.074" y2="159.459" gradientUnits="userSpaceOnUse">
<stop stop-color="#58595B"/>
<stop offset="1" stop-color="#858D91"/>
</linearGradient>
<linearGradient id="paint13_linear" x1="236.538" y1="97.4016" x2="238.186" y2="95.8454" gradientUnits="userSpaceOnUse">
<stop stop-color="#BB4247"/>
<stop offset="1" stop-color="#EE343C"/>
</linearGradient>
<linearGradient id="paint14_linear" x1="213.194" y1="120.792" x2="222.545" y2="113.479" gradientUnits="userSpaceOnUse">
<stop stop-color="#E3670C"/>
<stop offset="1" stop-color="#FC8F3E"/>
</linearGradient>
<linearGradient id="paint15_linear" x1="251.727" y1="98.0646" x2="239.68" y2="41.6736" gradientUnits="userSpaceOnUse">
<stop stop-color="#000007"/>
<stop offset="1" stop-color="#676A74"/>
</linearGradient>
<linearGradient id="paint16_linear" x1="248.751" y1="235.347" x2="238.831" y2="187.452" gradientUnits="userSpaceOnUse">
<stop stop-color="#000007"/>
<stop offset="1" stop-color="#676A74"/>
</linearGradient>
<linearGradient id="paint17_linear" x1="226.36" y1="240.187" x2="324.163" y2="180.067" gradientUnits="userSpaceOnUse">
<stop/>
<stop offset="1" stop-color="#6D6E71"/>
</linearGradient>
<linearGradient id="paint18_linear" x1="210.379" y1="191.853" x2="224.013" y2="183.338" gradientUnits="userSpaceOnUse">
<stop/>
<stop offset="1" stop-color="#6D6E71"/>
</linearGradient>
<linearGradient id="paint19_linear" x1="231.822" y1="173.477" x2="246.273" y2="163.449" gradientUnits="userSpaceOnUse">
<stop/>
<stop offset="1" stop-color="#808285"/>
</linearGradient>
<linearGradient id="paint20_linear" x1="232.665" y1="99.6636" x2="323.36" y2="43.2672" gradientUnits="userSpaceOnUse">
<stop/>
<stop offset="1" stop-color="#6D6E71"/>
</linearGradient>
<linearGradient id="paint21_linear" x1="228.579" y1="66.36" x2="293.413" y2="12.2867" gradientUnits="userSpaceOnUse">
<stop stop-color="#858F98"/>
<stop offset="1" stop-color="#848E95"/>
</linearGradient>
<linearGradient id="paint22_linear" x1="55.0311" y1="211.106" x2="96.4652" y2="177.314" gradientUnits="userSpaceOnUse">
<stop stop-color="#58595B"/>
<stop offset="1" stop-color="#858D91"/>
</linearGradient>
<linearGradient id="paint23_linear" x1="68.3736" y1="109.361" x2="56.569" y2="53.3521" gradientUnits="userSpaceOnUse">
<stop stop-color="#000007"/>
<stop offset="1" stop-color="#676A74"/>
</linearGradient>
<linearGradient id="paint24_linear" x1="69.8354" y1="252.657" x2="57.6675" y2="194.652" gradientUnits="userSpaceOnUse">
<stop stop-color="#000007"/>
<stop offset="1" stop-color="#676A74"/>
</linearGradient>
<linearGradient id="paint25_linear" x1="-24.2665" y1="294.816" x2="212.935" y2="149.764" gradientUnits="userSpaceOnUse">
<stop/>
<stop offset="1" stop-color="#6D6E71"/>
</linearGradient>
<linearGradient id="paint26_linear" x1="53.293" y1="73.7359" x2="114.602" y2="23.537" gradientUnits="userSpaceOnUse">
<stop stop-color="#858F98"/>
<stop offset="1" stop-color="#848E95"/>
</linearGradient>
<linearGradient id="paint27_linear" x1="130.979" y1="63.4598" x2="124.101" y2="30.1585" gradientUnits="userSpaceOnUse">
<stop stop-color="#000007"/>
<stop offset="1" stop-color="#676A74"/>
</linearGradient>
<linearGradient id="paint28_linear" x1="117.231" y1="274.878" x2="104.498" y2="214.716" gradientUnits="userSpaceOnUse">
<stop stop-color="#000007"/>
<stop offset="1" stop-color="#676A74"/>
</linearGradient>
<linearGradient id="paint29_linear" x1="116.625" y1="129.066" x2="104.253" y2="69.8607" gradientUnits="userSpaceOnUse">
<stop stop-color="#000007"/>
<stop offset="1" stop-color="#676A74"/>
</linearGradient>
<linearGradient id="paint30_linear" x1="100.142" y1="92.5109" x2="162.954" y2="40.5757" gradientUnits="userSpaceOnUse">
<stop stop-color="#858F98"/>
<stop offset="1" stop-color="#848E95"/>
</linearGradient>
<linearGradient id="paint31_linear" x1="-41.2918" y1="160.4" x2="234.113" y2="-9.51611" gradientUnits="userSpaceOnUse">
<stop/>
<stop offset="1" stop-color="#6D6E71"/>
</linearGradient>
<linearGradient id="paint32_linear" x1="187.153" y1="112.368" x2="175.481" y2="56.8147" gradientUnits="userSpaceOnUse">
<stop stop-color="#000007"/>
<stop offset="1" stop-color="#676A74"/>
</linearGradient>
<linearGradient id="paint33_linear" x1="166.551" y1="256.277" x2="259.44" y2="198.865" gradientUnits="userSpaceOnUse">
<stop/>
<stop offset="1" stop-color="#6D6E71"/>
</linearGradient>
<linearGradient id="paint34_linear" x1="178.383" y1="213.898" x2="223.329" y2="177.884" gradientUnits="userSpaceOnUse">
<stop stop-color="#58595B"/>
<stop offset="1" stop-color="#858D91"/>
</linearGradient>
<linearGradient id="paint35_linear" x1="194.98" y1="174.103" x2="233.952" y2="141.86" gradientUnits="userSpaceOnUse">
<stop stop-color="#E3670C"/>
<stop offset="1" stop-color="#FF9344"/>
</linearGradient>
<linearGradient id="paint36_linear" x1="169.644" y1="114.434" x2="261.811" y2="58.414" gradientUnits="userSpaceOnUse">
<stop/>
<stop offset="1" stop-color="#6D6E71"/>
</linearGradient>
<linearGradient id="paint37_linear" x1="165.588" y1="78.1001" x2="229.249" y2="24.6489" gradientUnits="userSpaceOnUse">
<stop stop-color="#858F98"/>
<stop offset="1" stop-color="#848E95"/>
</linearGradient>
<linearGradient id="paint38_linear" x1="116.527" y1="61.7442" x2="178.685" y2="10.0469" gradientUnits="userSpaceOnUse">
<stop stop-color="#858F98"/>
<stop offset="1" stop-color="#848E95"/>
</linearGradient>
<linearGradient id="paint39_linear" x1="150.842" y1="36.3554" x2="143.584" y2="1.11627" gradientUnits="userSpaceOnUse">
<stop stop-color="#000007"/>
<stop offset="1" stop-color="#676A74"/>
</linearGradient>
<linearGradient id="paint40_linear" x1="70.8881" y1="44.865" x2="130.724" y2="-6.29845" gradientUnits="userSpaceOnUse">
<stop stop-color="#858F98"/>
<stop offset="1" stop-color="#848E95"/>
</linearGradient>
<linearGradient id="paint41_linear" x1="96.9739" y1="42.3042" x2="138.114" y2="16.7657" gradientUnits="userSpaceOnUse">
<stop/>
<stop offset="1" stop-color="#6D6E71"/>
</linearGradient>
<linearGradient id="paint42_linear" x1="104.947" y1="128.116" x2="194.084" y2="73.9623" gradientUnits="userSpaceOnUse">
<stop/>
<stop offset="1" stop-color="#6D6E71"/>
</linearGradient>
<linearGradient id="paint43_linear" x1="168.411" y1="189.905" x2="184.082" y2="180.441" gradientUnits="userSpaceOnUse">
<stop/>
<stop offset="1" stop-color="#6D6E71"/>
</linearGradient>
<linearGradient id="paint44_linear" x1="129.72" y1="190.873" x2="169.56" y2="158.518" gradientUnits="userSpaceOnUse">
<stop stop-color="#E3670C"/>
<stop offset="1" stop-color="#FF9344"/>
</linearGradient>
<linearGradient id="paint45_linear" x1="105.247" y1="234.39" x2="160.057" y2="191.201" gradientUnits="userSpaceOnUse">
<stop stop-color="#58595B"/>
<stop offset="1" stop-color="#858D91"/>
</linearGradient>
<linearGradient id="paint46_linear" x1="185.694" y1="254.01" x2="175.679" y2="205.131" gradientUnits="userSpaceOnUse">
<stop stop-color="#000007"/>
<stop offset="1" stop-color="#676A74"/>
</linearGradient>
<linearGradient id="paint47_linear" x1="95.7208" y1="278.788" x2="202.427" y2="214.38" gradientUnits="userSpaceOnUse">
<stop/>
<stop offset="1" stop-color="#6D6E71"/>
</linearGradient>
<linearGradient id="paint48_linear" x1="143.595" y1="59.9011" x2="185.395" y2="33.5876" gradientUnits="userSpaceOnUse">
<stop/>
<stop offset="1" stop-color="#6D6E71"/>
</linearGradient>
<linearGradient id="paint49_linear" x1="145.65" y1="209.459" x2="161.308" y2="199.596" gradientUnits="userSpaceOnUse">
<stop/>
<stop offset="1" stop-color="#6D6E71"/>
</linearGradient>
<linearGradient id="paint50_linear" x1="135.221" y1="32.5528" x2="195.013" y2="-19.1362" gradientUnits="userSpaceOnUse">
<stop stop-color="#858F98"/>
<stop offset="1" stop-color="#848E95"/>
</linearGradient>
</defs>
</svg>
