<svg width="301" height="290" viewBox="0 0 301 290" fill="none" xmlns="http://www.w3.org/2000/svg">
<path fill-rule="evenodd" clip-rule="evenodd" d="M295.935 241.667L131.242 290V181.794L181.242 169.167L181.461 133.026L256.022 115.39L256.68 81.4264L300.321 71.6292L295.935 241.667Z" fill="url(#paint0_linear)"/>
<path fill-rule="evenodd" clip-rule="evenodd" d="M131.242 181.794V290L3.82957 229.257L0.320793 58.7837L34.312 72.0645L34.7506 106.028L92.4261 129.324L92.6453 165.248L131.242 181.794Z" fill="url(#paint1_linear)"/>
<path fill-rule="evenodd" clip-rule="evenodd" d="M34.312 72.0646L0.320801 58.7838L29.7068 52.9054L30.1454 53.1231L276.856 63.5736L300.321 71.6291L256.68 81.4264L34.312 72.0646Z" fill="#FFBF90"/>
<path fill-rule="evenodd" clip-rule="evenodd" d="M256.68 81.4264L256.023 115.39L34.7506 106.028L34.312 72.0645L256.68 81.4264Z" fill="url(#paint2_linear)"/>
<path fill-rule="evenodd" clip-rule="evenodd" d="M34.7506 106.028L256.023 115.39L181.461 133.025L92.4261 129.324L34.7506 106.028Z" fill="#FFBF90"/>
<path fill-rule="evenodd" clip-rule="evenodd" d="M276.856 63.5736L30.1454 53.1231L29.7068 25.6907L277.514 36.3588L276.856 63.5736Z" fill="url(#paint3_linear)"/>
<path fill-rule="evenodd" clip-rule="evenodd" d="M277.514 36.3589L29.7068 25.6907H29.2682L167.426 0L277.514 36.3589Z" fill="#9DA5AB"/>
<path fill-rule="evenodd" clip-rule="evenodd" d="M29.2682 25.6907H29.7068L30.1454 53.1231L29.7068 52.9054L29.2682 25.6907Z" fill="#D4D4D4"/>
<path fill-rule="evenodd" clip-rule="evenodd" d="M131.242 181.794L92.6454 165.248L181.242 169.167L131.242 181.794Z" fill="#FFBF90"/>
<path fill-rule="evenodd" clip-rule="evenodd" d="M92.4261 129.324L181.461 133.026L181.242 169.167L92.6454 165.248L92.4261 129.324Z" fill="url(#paint4_linear)"/>
<defs>
<linearGradient id="paint0_linear" x1="75.3694" y1="281.363" x2="370.132" y2="102.966" gradientUnits="userSpaceOnUse">
<stop/>
<stop offset="1" stop-color="#6D6E71"/>
</linearGradient>
<linearGradient id="paint1_linear" x1="89.7074" y1="309.029" x2="33.2485" y2="41.4825" gradientUnits="userSpaceOnUse">
<stop stop-color="#58595B"/>
<stop offset="1" stop-color="#858D91"/>
</linearGradient>
<linearGradient id="paint2_linear" x1="0.596442" y1="209.876" x2="288.756" y2="-25.1644" gradientUnits="userSpaceOnUse">
<stop stop-color="#D46412"/>
<stop offset="1" stop-color="#FF9344"/>
</linearGradient>
<linearGradient id="paint3_linear" x1="36.0276" y1="58.325" x2="196.17" y2="39.3173" gradientUnits="userSpaceOnUse">
<stop stop-color="#D46412"/>
<stop offset="1" stop-color="#FF9344"/>
</linearGradient>
<linearGradient id="paint4_linear" x1="106.775" y1="173.365" x2="166.785" y2="124.417" gradientUnits="userSpaceOnUse">
<stop stop-color="#D46412"/>
<stop offset="1" stop-color="#FF9344"/>
</linearGradient>
</defs>
</svg>
