<svg width="30" height="30" viewBox="0 0 30 30" fill="none" xmlns="http://www.w3.org/2000/svg">
<path fill-rule="evenodd" clip-rule="evenodd" d="M30 15C30 23.2843 23.2843 30 15 30C6.71573 30 0 23.2843 0 15C0 6.71573 6.71573 0 15 0C23.2843 0 30 6.71573 30 15ZM4.81213 15.8121L9.64975 18.2309C9.71121 18.2616 9.75 18.3244 9.74994 18.3931V23.2256C9.74994 23.3639 9.89848 23.4512 10.0193 23.3841L15.5763 20.2969C15.6253 20.2696 15.6842 20.2667 15.7357 20.2887L20.0361 22.1317C20.142 22.177 20.2627 22.1135 20.2853 22.0006L23.4496 6.17931C23.4793 6.03025 23.3235 5.91288 23.1885 5.98273L4.8099 15.4889C4.67824 15.5571 4.67953 15.7458 4.81213 15.8121Z" fill="white"/>
</svg>
