<svg width="30" height="30" viewBox="0 0 30 30" fill="none" xmlns="http://www.w3.org/2000/svg">
<path fill-rule="evenodd" clip-rule="evenodd" d="M30 15C30 23.2843 23.2843 30 15 30C6.71573 30 0 23.2843 0 15C0 6.71573 6.71573 0 15 0C23.2843 0 30 6.71573 30 15ZM15.6106 21.5788H14.4333C14.4333 21.5788 11.8356 21.7353 9.54812 19.3536C7.05338 16.7559 4.85009 11.6012 4.85009 11.6012C4.85009 11.6012 4.72308 11.2632 4.86105 11.0999C5.01614 10.9162 5.43861 10.9044 5.43861 10.9044L8.25288 10.8859C8.25288 10.8859 8.51813 10.9303 8.70798 11.0696C8.8644 11.1846 8.95211 11.3996 8.95211 11.3996C8.95211 11.3996 9.40693 12.5499 10.0094 13.5906C11.1851 15.6222 11.7327 16.0666 12.1319 15.849C12.7135 15.5316 12.5391 12.9769 12.5391 12.9769C12.5391 12.9769 12.5498 12.0496 12.2463 11.6368C12.0113 11.3167 11.568 11.2234 11.3722 11.1972C11.214 11.1761 11.4739 10.8084 11.8108 10.6434C12.3172 10.3953 13.2116 10.3811 14.2683 10.3921C15.0916 10.4004 15.3285 10.4517 15.6505 10.5295C16.3974 10.7099 16.3741 11.2877 16.3238 12.5346C16.3088 12.9072 16.2914 13.3395 16.2914 13.8387C16.2914 13.9511 16.2881 14.0708 16.2848 14.194C16.2673 14.8325 16.2473 15.5636 16.6676 15.8353C16.8831 15.9744 17.4104 15.8562 18.7292 13.6168C19.3543 12.5555 19.8231 11.3076 19.8231 11.3076C19.8231 11.3076 19.9255 11.0852 20.0846 10.9897C20.2474 10.8924 20.467 10.9223 20.467 10.9223L23.4286 10.9039C23.4286 10.9039 24.3184 10.7977 24.4626 11.1993C24.6136 11.621 24.1299 12.6055 22.92 14.2182C21.7709 15.7496 21.2126 16.3125 21.2651 16.8111C21.3034 17.1746 21.6663 17.5039 22.3617 18.1493C23.8195 19.5025 24.208 20.213 24.3004 20.3818C24.3078 20.3955 24.3134 20.4056 24.3174 20.4122C24.9698 21.4941 23.5938 21.5788 23.5938 21.5788L20.9635 21.6155C20.9635 21.6155 20.3982 21.7275 19.6544 21.2165C19.2653 20.9495 18.885 20.5135 18.5226 20.0981C17.9687 19.463 17.4567 18.876 17.0198 19.0146C16.2866 19.2472 16.3096 20.8269 16.3096 20.8269C16.3096 20.8269 16.3149 21.1644 16.1478 21.3441C15.9663 21.5398 15.6106 21.5788 15.6106 21.5788Z" fill="white"/>
</svg>
